<?xml version="1.0" standalone="no"?><!DOCTYPE svg PUBLIC "-//W3C//DTD SVG 1.1//EN" "http://www.w3.org/Graphics/SVG/1.1/DTD/svg11.dtd"><svg t="1711553242713" class="icon" viewBox="0 0 1024 1024" version="1.1" xmlns="http://www.w3.org/2000/svg" p-id="8362" xmlns:xlink="http://www.w3.org/1999/xlink" width="200" height="200"><path d="M0 0h1024v1024H0z" fill="#333333" p-id="8363"></path><path d="M921.6 512c0-60.928-57.856-114.688-148.48-151.04 14.336-96.256-3.584-173.568-56.32-204.8a107.52 107.52 0 0 0-51.2-13.312 263.68 263.68 0 0 0-153.6 67.072 263.68 263.68 0 0 0-153.6-66.048 107.52 107.52 0 0 0-51.2 13.312c-51.2 30.208-70.656 107.52-56.32 204.8C160.256 397.312 102.4 451.072 102.4 512s57.856 114.688 148.48 153.6c-14.336 96.256 3.584 173.568 56.32 204.8a107.52 107.52 0 0 0 51.2 13.312 263.68 263.68 0 0 0 153.6-67.072 263.68 263.68 0 0 0 153.6 67.072 107.52 107.52 0 0 0 51.2-13.312c51.2-30.208 70.656-107.52 56.32-204.8 90.624-38.912 148.48-92.672 148.48-153.6z m-256-316.928a51.2 51.2 0 0 1 27.136 6.656c27.648 15.872 41.984 68.608 32.768 142.848a736.256 736.256 0 0 0-102.4-21.504 738.304 738.304 0 0 0-71.68-77.312A210.944 210.944 0 0 1 665.6 195.072z m35.328 381.952c6.144 17.92 10.752 35.328 14.848 51.2a475.648 475.648 0 0 1-51.2 13.312c6.656-10.752 13.824-20.992 20.48-32.768s8.704-20.992 14.336-31.744z m-61.952 7.168a795.648 795.648 0 0 1-45.056 68.608 803.84 803.84 0 0 1-80.384 4.096 803.84 803.84 0 0 1-80.384-4.096 795.648 795.648 0 0 1-45.056-68.608c-13.824-24.576-26.112-48.64-36.864-71.68a745.984 745.984 0 0 1 36.864-72.704 723.456 723.456 0 0 1 45.056-68.608 791.04 791.04 0 0 1 160.768 0 795.648 795.648 0 0 1 45.056 68.608 745.984 745.984 0 0 1 35.328 72.192c-8.704 23.552-23.04 47.616-36.864 72.192zM512 744.96c-12.288-11.776-24.576-24.064-36.864-37.888h73.728c-12.288 13.824-24.576 26.112-36.864 37.888z m-169.472-135.168c6.656 11.776 13.824 22.016 20.48 32.768a475.648 475.648 0 0 1-51.2-13.312c4.096-16.896 8.704-34.304 14.848-51.2 3.584 9.728 9.216 20.992 15.872 31.744z m-18.432-162.304c-6.144-18.432-10.752-35.84-14.848-51.2a515.584 515.584 0 0 1 51.2-13.312c-6.656 10.752-13.824 20.992-20.48 32.768s-10.24 20.48-15.872 31.744zM512 279.04c12.288 11.776 24.576 24.064 36.864 37.888H475.136c12.288-13.824 24.576-26.112 36.864-37.888z m169.472 135.168c-6.656-11.776-13.824-22.016-20.48-32.768a515.584 515.584 0 0 1 55.808 13.312c-4.096 16.896-8.704 34.304-14.848 51.2-7.68-9.728-13.824-20.48-20.48-31.744zM332.8 201.728a51.2 51.2 0 0 1 25.6-6.656 210.944 210.944 0 0 1 112.64 51.2 738.304 738.304 0 0 0-67.584 76.8 736.256 736.256 0 0 0-102.4 21.504c-10.24-74.24 6.144-126.976 31.744-142.848zM153.6 512c0-31.744 38.4-70.656 107.52-99.84A651.776 651.776 0 0 0 294.4 512a651.776 651.776 0 0 0-33.28 102.4C192 582.656 153.6 543.744 153.6 512z m204.8 316.928a51.2 51.2 0 0 1-27.136-6.656c-26.624-15.36-39.424-61.952-34.304-124.928v-17.92a736.768 736.768 0 0 0 102.4 21.504 738.304 738.304 0 0 0 73.216 77.312 210.944 210.944 0 0 1-114.176 50.688z m365.568-131.584c5.12 62.976-7.68 109.568-34.304 124.928a51.2 51.2 0 0 1-27.136 6.656 210.944 210.944 0 0 1-112.64-51.2 738.304 738.304 0 0 0 69.12-77.312 736.768 736.768 0 0 0 102.4-21.504c2.048 6.656 4.096 12.8 4.096 18.432zM762.88 614.4a651.776 651.776 0 0 0-33.28-102.4 651.776 651.776 0 0 0 33.28-99.84C832 441.344 870.4 480.256 870.4 512s-38.4 70.656-107.52 102.4z" fill="#00D8FF" p-id="8364"></path><path d="M512 512m-51.2 0a51.2 51.2 0 1 0 102.4 0 51.2 51.2 0 1 0-102.4 0Z" fill="#00D8FF" p-id="8365"></path></svg>