<?xml version="1.0" standalone="no"?><!DOCTYPE svg PUBLIC "-//W3C//DTD SVG 1.1//EN" "http://www.w3.org/Graphics/SVG/1.1/DTD/svg11.dtd"><svg t="1711458795791" class="icon" viewBox="0 0 1024 1024" version="1.1" xmlns="http://www.w3.org/2000/svg" p-id="6446" xmlns:xlink="http://www.w3.org/1999/xlink" width="200" height="200"><path d="M63.3 59.3h896.1v896.1H63.3z" fill="#F2E433" p-id="6447"></path><path d="M352.1 673.8H143.8V324.5h198.1v38.8H190.8v108.3h138.9v38.8H190.8V635h161.4v38.8zM616.2 575.7c0 31.3-9.9 56.2-29.6 74.6-19.8 18.4-46.7 27.6-80.7 27.6-34.1 0-60.6-9.5-79.7-28.6s-28.6-42.9-28.6-71.5v-14.3h47v12.3c0 20.4 6.1 36.1 18.4 47 12.3 10.9 26.6 16.3 42.9 16.3 21.8 0 37.8-5.8 48-17.4 10.2-11.6 15.3-25.5 15.3-41.9 0-13.6-6.1-26.2-18.4-37.8-12.3-11.6-30-22.1-53.1-31.7-32.7-12.3-56.2-25.9-70.5-40.9-14.3-15-21.4-32.7-21.4-53.1 0-28.6 9.9-51.7 29.6-69.4 19.7-17.7 43.2-26.6 70.5-26.6 35.4 0 60.9 10.6 76.6 31.7 15.6 21.1 23.5 43.9 23.5 68.4h-47c1.3-15-2.7-28.6-12.3-40.9-9.5-12.3-23.2-18.4-40.9-18.4-16.3 0-29.3 4.4-38.8 13.3-9.5 8.9-14.3 20.8-14.3 35.7 0 12.3 3.7 22.8 11.2 31.7 7.5 8.9 26.9 19.4 58.2 31.7 29.9 12.3 53.1 26.9 69.4 43.9 16.5 17.2 24.7 36.6 24.7 58.3zM663.8 552.3c1.3-19.7 5.1-36.4 11.2-50 6.1-13.6 15.3-30.6 27.6-51.1l83.7-130.7h47l-85.8 134.8c36.8-9.5 66-8.2 87.8 4.1 21.8 12.3 36.4 26.2 43.9 41.9s11.6 32.7 12.3 51.1c0.7 18.4-2 36.4-8.2 54.1-6.1 17.7-17 33.7-32.7 48-15.7 14.3-37.5 22.1-65.4 23.5-27.9 1.4-51.8-3.7-71.5-15.3-19.8-11.6-33.4-27.9-40.9-49-7.4-21.3-10.4-41.7-9-61.4z m63.3 67.4c12.3 13 28.6 20.1 49 21.4 20.4 1.4 37.4-5.4 51.1-20.4 13.6-15 20.4-36.8 20.4-65.4s-8.5-48.3-25.5-59.2c-17-10.9-36.1-15-57.2-12.3-21.1 2.7-36.4 13-46 30.6-9.5 17.7-13.6 36.4-12.3 56.2 1.4 19.8 8.2 36.1 20.5 49.1z" fill="" p-id="6448"></path></svg>