<svg width="32" height="32" version="1.1" xmlns="http://www.w3.org/2000/svg" desc="Created with imagetracer.js version 1.2.6" ><path fill="rgb(234,234,234)" stroke="rgb(234,234,234)" stroke-width="1" opacity="1" d="M 29.5 9 L 28.5 11 L 29.5 9 Z " /><path fill="rgb(234,234,234)" stroke="rgb(234,234,234)" stroke-width="1" opacity="1" d="M 1.5 15 L 2 18.5 L 1 18.5 L 1.5 15 Z " /><path fill="rgb(255,255,255)" stroke="rgb(255,255,255)" stroke-width="1" opacity="1" d="M 0 0 L 32 0 L 32 32 L 0 32 L 0 0 Z M 6 9 L 1 16 L 2 22 Q 4 27 13 25 L 16 19 Q 12 17 13 21 L 10 23 L 4 20 L 5 18 L 16 18 L 15 12 Q 13 7 6 9 Z M 16 9 L 21 17 L 15 25 L 19 25 L 23 19 L 26 25 L 30 25 L 24 17 L 30 10 L 27 9 L 23 14 L 21 12 Q 20 8 16 9 Z " /><path fill="rgb(255,255,255)" stroke="rgb(255,255,255)" stroke-width="1" opacity="1" d="M 8.5 11 L 13 13.5 L 12.5 16 L 4.5 16 L 5 14.5 L 6.5 12 L 8.5 11 Z " /><path fill="rgb(32,33,34)" stroke="rgb(32,33,34)" stroke-width="1" opacity="1" d="M 7.5 9 Q 12.6 8.4 14 11.5 L 16 17.5 L 3 18.5 L 6.5 23 Q 13.3 24.3 14.5 20 L 14 21.5 L 12.5 24 L 7.5 25 L 3 21.5 L 2 14.5 L 5.5 10 L 7.5 9 Z M 7 11 Q 3 12 4 16 L 14 16 L 14 14 Q 13 10 7 11 Z " /><path fill="rgb(32,33,34)" stroke="rgb(32,33,34)" stroke-width="1" opacity="1" d="M 17.5 9 L 22.5 15 L 27.5 9 L 28 10.5 L 23 16.5 L 29 24.5 L 27 25 L 22.5 18 L 18 25 L 16 24.5 L 22 16.5 L 17 10.5 L 17.5 9 Z " /><path fill="rgb(189,189,189)" stroke="rgb(189,189,189)" stroke-width="1" opacity="1" d="M 4.5 10 L 3.5 12 L 4.5 10 Z " /><path fill="rgb(189,189,189)" stroke="rgb(189,189,189)" stroke-width="1" opacity="1" d="M 13.5 10 L 14.5 12 L 13.5 10 Z " /><path fill="rgb(189,189,189)" stroke="rgb(189,189,189)" stroke-width="1" opacity="1" d="M 17.5 11 L 18.5 13 L 17.5 11 Z " /><path fill="rgb(189,189,189)" stroke="rgb(189,189,189)" stroke-width="1" opacity="1" d="M 21.5 13 L 24 13.5 Q 21.9 16.8 21.5 13 Z " /><path fill="rgb(189,189,189)" stroke="rgb(189,189,189)" stroke-width="1" opacity="1" d="M 25.5 14 L 24.5 16 L 25.5 14 Z " /><path fill="rgb(189,189,189)" stroke="rgb(189,189,189)" stroke-width="1" opacity="1" d="M 14.5 19 Q 16.8 18.3 16 20.5 L 14.5 19 Z " /><path fill="rgb(189,189,189)" stroke="rgb(189,189,189)" stroke-width="1" opacity="1" d="M 19.5 19 L 18.5 21 L 19.5 19 Z " /><path fill="rgb(189,189,189)" stroke="rgb(189,189,189)" stroke-width="1" opacity="1" d="M 24.5 21 L 25.5 23 L 24.5 21 Z " /><path fill="rgb(189,189,189)" stroke="rgb(189,189,189)" stroke-width="1" opacity="1" d="M 14.5 22 L 13.5 24 L 14.5 22 Z " /><path fill="rgb(189,189,189)" stroke="rgb(189,189,189)" stroke-width="1" opacity="1" d="M 16.5 23 L 15.5 25 L 16.5 23 Z " /><path fill="rgb(189,189,189)" stroke="rgb(189,189,189)" stroke-width="1" opacity="1" d="M 28.5 23 L 29.5 25 L 28.5 23 Z " /><path fill="rgb(124,124,125)" stroke="rgb(124,124,125)" stroke-width="1" opacity="1" d="M 25.5 11 L 26.5 13 L 24 12.5 L 25.5 11 Z " /><path fill="rgb(124,124,125)" stroke="rgb(124,124,125)" stroke-width="1" opacity="1" d="M 14.5 12 L 13.5 14 L 14.5 12 Z " /><path fill="rgb(124,124,125)" stroke="rgb(124,124,125)" stroke-width="1" opacity="1" d="M 20.5 12 L 19.5 14 L 20.5 12 Z " /><path fill="rgb(124,124,125)" stroke="rgb(124,124,125)" stroke-width="1" opacity="1" d="M 20.5 18 L 24.5 18 L 26 19.5 L 21.5 20 L 20.5 18 Z " /><path fill="rgb(124,124,125)" stroke="rgb(124,124,125)" stroke-width="1" opacity="1" d="M 13.5 20 L 14.5 22 L 13.5 20 Z " /><path fill="rgb(124,124,125)" stroke="rgb(124,124,125)" stroke-width="1" opacity="1" d="M 3.5 22 L 4.5 24 L 3.5 22 Z " /><path fill="rgb(124,124,125)" stroke="rgb(124,124,125)" stroke-width="1" opacity="1" d="M 17.5 22 L 20 22.5 Q 17.9 25.8 17.5 22 Z " /><path fill="rgb(124,124,125)" stroke="rgb(124,124,125)" stroke-width="1" opacity="1" d="M 27.5 22 L 26.5 24 L 27.5 22 Z " /></svg>