<svg width="180" height="180" version="1.1" xmlns="http://www.w3.org/2000/svg" desc="Created with imagetracer.js version 1.2.6" ><path fill="rgb(233,233,233)" stroke="rgb(233,233,233)" stroke-width="1" opacity="1" d="M 19.5 33 L 31.5 33 L 33 34.5 L 32.5 95 L 32 34 L 19.5 34 L 19 34.5 L 19 141.5 L 18 141.5 L 18 34.5 L 19.5 33 Z " /><path fill="rgb(233,233,233)" stroke="rgb(233,233,233)" stroke-width="1" opacity="1" d="M 123.5 60 L 129 60.5 L 123.5 61 L 123.5 60 Z " /><path fill="rgb(233,233,233)" stroke="rgb(233,233,233)" stroke-width="1" opacity="1" d="M 64.5 63 L 59.5 69 L 64.5 63 Z " /><path fill="rgb(233,233,233)" stroke="rgb(233,233,233)" stroke-width="1" opacity="1" d="M 103.5 67 L 97.5 74 L 103.5 67 Z " /><path fill="rgb(233,233,233)" stroke="rgb(233,233,233)" stroke-width="1" opacity="1" d="M 148.5 67 L 149.5 69 L 148.5 67 Z " /><path fill="rgb(233,233,233)" stroke="rgb(233,233,233)" stroke-width="1" opacity="1" d="M 154.5 73 L 155.5 75 L 154.5 73 Z " /><path fill="rgb(233,233,233)" stroke="rgb(233,233,233)" stroke-width="1" opacity="1" d="M 112.5 77 L 111.5 79 L 112.5 77 Z " /><path fill="rgb(233,233,233)" stroke="rgb(233,233,233)" stroke-width="1" opacity="1" d="M 140.5 78 L 141.5 80 L 140.5 78 Z " /><path fill="rgb(233,233,233)" stroke="rgb(233,233,233)" stroke-width="1" opacity="1" d="M 57.5 88 L 53.5 93 L 57.5 88 Z " /><path fill="rgb(233,233,233)" stroke="rgb(233,233,233)" stroke-width="1" opacity="1" d="M 147.5 95 L 148 97.5 L 147 97.5 L 147.5 95 Z " /><path fill="rgb(233,233,233)" stroke="rgb(233,233,233)" stroke-width="1" opacity="1" d="M 162.5 95 L 163 97.5 L 162 97.5 L 162.5 95 Z " /><path fill="rgb(233,233,233)" stroke="rgb(233,233,233)" stroke-width="1" opacity="1" d="M 103.5 98 L 104 101.5 L 103 101.5 L 103.5 98 Z " /><path fill="rgb(233,233,233)" stroke="rgb(233,233,233)" stroke-width="1" opacity="1" d="M 88.5 101 L 89 106.5 L 88 106.5 L 88.5 101 Z " /><path fill="rgb(233,233,233)" stroke="rgb(233,233,233)" stroke-width="1" opacity="1" d="M 42.5 103 L 43.5 105 L 41 104.5 L 42.5 103 Z " /><path fill="rgb(233,233,233)" stroke="rgb(233,233,233)" stroke-width="1" opacity="1" d="M 162.5 103 L 163 106.5 L 162 106.5 L 162.5 103 Z " /><path fill="rgb(233,233,233)" stroke="rgb(233,233,233)" stroke-width="1" opacity="1" d="M 147.5 104 L 148 107.5 L 147 107.5 L 147.5 104 Z " /><path fill="rgb(233,233,233)" stroke="rgb(233,233,233)" stroke-width="1" opacity="1" d="M 103.5 106 L 104 109.5 L 103 109.5 L 103.5 106 Z " /><path fill="rgb(233,233,233)" stroke="rgb(233,233,233)" stroke-width="1" opacity="1" d="M 33.5 111 L 33 112.5 L 32.5 142 L 32 112.5 L 33.5 111 Z " /><path fill="rgb(233,233,233)" stroke="rgb(233,233,233)" stroke-width="1" opacity="1" d="M 109.5 125 L 112.5 129 L 109.5 125 Z " /><path fill="rgb(233,233,233)" stroke="rgb(233,233,233)" stroke-width="1" opacity="1" d="M 140.5 126 L 138.5 129 L 140.5 126 Z " /><path fill="rgb(233,233,233)" stroke="rgb(233,233,233)" stroke-width="1" opacity="1" d="M 123.5 132 L 127 132.5 L 123.5 133 L 123.5 132 Z " /><path fill="rgb(233,233,233)" stroke="rgb(233,233,233)" stroke-width="1" opacity="1" d="M 153.5 132 L 151.5 135 L 153.5 132 Z " /><path fill="rgb(233,233,233)" stroke="rgb(233,233,233)" stroke-width="1" opacity="1" d="M 97.5 133 L 100.5 137 L 97.5 133 Z " /><path fill="rgb(233,233,233)" stroke="rgb(233,233,233)" stroke-width="1" opacity="1" d="M 131.5 144 L 134 144.5 L 131.5 145 L 131.5 144 Z " /><path fill="rgb(255,255,255)" stroke="rgb(255,255,255)" stroke-width="1" opacity="1" d="M 0 0 L 180 0 L 180 180 L 0 180 L 0 0 Z M 20 33 L 18 35 L 18 142 L 33 142 L 33 113 L 43 104 L 66 142 L 85 142 L 54 93 L 83 63 L 65 63 L 34 94 L 33 35 L 32 33 L 20 33 Z M 124 60 L 111 63 L 104 67 Q 95 74 91 85 L 88 102 L 90 120 L 97 134 L 108 142 L 117 145 L 134 145 L 148 139 Q 155 133 159 124 L 163 107 L 162 89 L 156 75 Q 147 60 124 60 Z " /><path fill="rgb(255,255,255)" stroke="rgb(255,255,255)" stroke-width="1" opacity="1" d="M 123.5 73 Q 137.8 72.8 143 81.5 L 147 91.5 L 148 103.5 L 145 118.5 Q 142.4 125.9 136.5 130 Q 130.7 133.7 119.5 132 Q 111.6 129.9 108 123.5 L 104 113.5 L 103 102.5 L 106 87.5 Q 108.6 80.1 114.5 76 L 123.5 73 Z " /><path fill="rgb(51,51,61)" stroke="rgb(51,51,61)" stroke-width="1" opacity="1" d="M 19 34 L 31.5 34 L 32 34.5 L 32 94.5 L 33.5 95 L 65.5 63 L 81.5 63 L 53 92.5 L 84 142 L 67.5 142 L 66 140.5 L 42.5 103 L 32 112.5 L 32 142 L 19 142 L 19 34 Z " /><path fill="rgb(51,51,61)" stroke="rgb(51,51,61)" stroke-width="1" opacity="1" d="M 120.5 61 Q 146.6 59.9 156 75.5 L 160 83.5 L 162 91.5 L 162 110.5 L 157 126.5 L 146.5 139 L 134.5 144 L 123.5 145 L 109.5 142 L 98 133.5 Q 87.4 121.6 89 97.5 L 91 86.5 L 94 79.5 L 104.5 67 L 109.5 64 L 120.5 61 Z M 120 73 L 114 76 Q 105 83 103 96 Q 101 115 108 125 Q 112 131 121 133 Q 131 134 137 131 L 144 123 L 148 110 Q 151 90 143 81 Q 137 71 120 73 Z " /><path fill="rgb(158,158,163)" stroke="rgb(158,158,163)" stroke-width="1" opacity="1" d="M 117.5 61 L 120 61.5 L 117.5 62 L 117.5 61 Z " /><path fill="rgb(158,158,163)" stroke="rgb(158,158,163)" stroke-width="1" opacity="1" d="M 82.5 63 L 58.5 88 L 82.5 63 Z " /><path fill="rgb(158,158,163)" stroke="rgb(158,158,163)" stroke-width="1" opacity="1" d="M 58.5 69 L 33.5 95 L 58.5 69 Z " /><path fill="rgb(158,158,163)" stroke="rgb(158,158,163)" stroke-width="1" opacity="1" d="M 150.5 69 L 153.5 73 L 150.5 69 Z " /><path fill="rgb(158,158,163)" stroke="rgb(158,158,163)" stroke-width="1" opacity="1" d="M 97.5 74 L 96.5 76 L 97.5 74 Z " /><path fill="rgb(158,158,163)" stroke="rgb(158,158,163)" stroke-width="1" opacity="1" d="M 138.5 76 L 139.5 78 L 138.5 76 Z " /><path fill="rgb(158,158,163)" stroke="rgb(158,158,163)" stroke-width="1" opacity="1" d="M 95.5 77 L 94.5 79 L 95.5 77 Z " /><path fill="rgb(158,158,163)" stroke="rgb(158,158,163)" stroke-width="1" opacity="1" d="M 110.5 79 L 109.5 81 L 110.5 79 Z " /><path fill="rgb(158,158,163)" stroke="rgb(158,158,163)" stroke-width="1" opacity="1" d="M 147.5 92 L 148 94.5 L 147 94.5 L 147.5 92 Z " /><path fill="rgb(158,158,163)" stroke="rgb(158,158,163)" stroke-width="1" opacity="1" d="M 89.5 93 L 90 96.5 L 89 96.5 L 89.5 93 Z " /><path fill="rgb(158,158,163)" stroke="rgb(158,158,163)" stroke-width="1" opacity="1" d="M 103.5 95 L 104 97.5 L 103 97.5 L 103.5 95 Z " /><path fill="rgb(158,158,163)" stroke="rgb(158,158,163)" stroke-width="1" opacity="1" d="M 56.5 98 L 57.5 100 L 56.5 98 Z " /><path fill="rgb(158,158,163)" stroke="rgb(158,158,163)" stroke-width="1" opacity="1" d="M 162.5 98 L 163 102.5 L 162 102.5 L 162.5 98 Z " /><path fill="rgb(158,158,163)" stroke="rgb(158,158,163)" stroke-width="1" opacity="1" d="M 58.5 101 L 59.5 103 L 58.5 101 Z " /><path fill="rgb(158,158,163)" stroke="rgb(158,158,163)" stroke-width="1" opacity="1" d="M 39.5 105 L 34.5 111 L 39.5 105 Z " /><path fill="rgb(158,158,163)" stroke="rgb(158,158,163)" stroke-width="1" opacity="1" d="M 89.5 111 L 90 114.5 L 89 114.5 L 89.5 111 Z " /><path fill="rgb(158,158,163)" stroke="rgb(158,158,163)" stroke-width="1" opacity="1" d="M 50.5 115 L 51.5 117 L 50.5 115 Z " /><path fill="rgb(158,158,163)" stroke="rgb(158,158,163)" stroke-width="1" opacity="1" d="M 67.5 115 L 68.5 117 L 67.5 115 Z " /><path fill="rgb(158,158,163)" stroke="rgb(158,158,163)" stroke-width="1" opacity="1" d="M 58.5 128 L 59.5 130 L 58.5 128 Z " /><path fill="rgb(158,158,163)" stroke="rgb(158,158,163)" stroke-width="1" opacity="1" d="M 137.5 129 L 136.5 131 L 137.5 129 Z " /><path fill="rgb(158,158,163)" stroke="rgb(158,158,163)" stroke-width="1" opacity="1" d="M 96.5 131 L 97.5 133 L 96.5 131 Z " /><path fill="rgb(158,158,163)" stroke="rgb(158,158,163)" stroke-width="1" opacity="1" d="M 78.5 132 L 79.5 134 L 78.5 132 Z " /><path fill="rgb(158,158,163)" stroke="rgb(158,158,163)" stroke-width="1" opacity="1" d="M 120.5 132 L 123 132.5 L 120.5 133 L 120.5 132 Z " /><path fill="rgb(158,158,163)" stroke="rgb(158,158,163)" stroke-width="1" opacity="1" d="M 127.5 132 L 131 132.5 L 127.5 133 L 127.5 132 Z " /><path fill="rgb(158,158,163)" stroke="rgb(158,158,163)" stroke-width="1" opacity="1" d="M 150.5 135 L 148.5 138 L 150.5 135 Z " /><path fill="rgb(158,158,163)" stroke="rgb(158,158,163)" stroke-width="1" opacity="1" d="M 118.5 144 L 123 144.5 L 118.5 145 L 118.5 144 Z " /><path fill="rgb(158,158,163)" stroke="rgb(158,158,163)" stroke-width="1" opacity="1" d="M 126.5 144 L 131 144.5 L 126.5 145 L 126.5 144 Z " /></svg>