<?xml version="1.0" standalone="no"?><!DOCTYPE svg PUBLIC "-//W3C//DTD SVG 1.1//EN" "http://www.w3.org/Graphics/SVG/1.1/DTD/svg11.dtd"><svg t="1711460089682" class="icon" viewBox="0 0 1024 1024" version="1.1" xmlns="http://www.w3.org/2000/svg" p-id="7764" xmlns:xlink="http://www.w3.org/1999/xlink" width="200" height="200"><path d="M0 0v1024h1024V0z m450.72 212c28.448-2.016 42.72 2.816 67.84 10.336l18.592 5.536 6.496 1.952 23.776 7.264c15.584 4.224 31.904 4.48 47.584 0.736a86.24 86.24 0 0 1 63.584 7.648l-0.448-0.224c17.44 9.952 29.184 27.648 31.456 47.584a56.32 56.32 0 0 0 27.648 42.208c22.912 12.512 46.752 22.944 71.328 31.392 17.376 6.656 34.784 14.112 52 20.832 8.544 3.296 16.096 8.672 21.92 15.776 4.736 5.696 7.808 12.896 8.384 20.768v0.128c1.056 15.328 2.912 30.816 3.68 46.24h-0.096a116.16 116.16 0 0 1-13.536 61.408c-3.712 7.04-7.808 13.696-11.232 20.736a26.336 26.336 0 0 1-27.232 15.648h0.128-0.768a17.728 17.728 0 0 0-11.104 3.872l0.032-0.032c-10.496 6.88-21.216 13.664-32 20.096a55.936 55.936 0 0 1-48.672 2.56 224.704 224.704 0 0 0-81.408-14.976l-2.784-0.032c-28.064 0-53.12 12.832-69.632 32.96l-0.128 0.16a111.104 111.104 0 0 0-16 32.064l-0.224 0.8c-9.504 23.456-17.664 163.744-17.664 199.52 0 0-134.88-26.24-261.536-155.872l33.024-86.624H230.304l74.848-79.2H176.544l74.752-79.264H129.152l136.032-144.352a312.864 312.864 0 0 1 149.312-82.784l2.112-0.416c13.568-2.336 24.576-3.808 34.048-4.448z" p-id="7765" fill="#2c2c2c"></path></svg>