<?xml version="1.0" standalone="no"?><!DOCTYPE svg PUBLIC "-//W3C//DTD SVG 1.1//EN" "http://www.w3.org/Graphics/SVG/1.1/DTD/svg11.dtd"><svg t="1711458625582" class="icon" viewBox="0 0 1024 1024" version="1.1" xmlns="http://www.w3.org/2000/svg" p-id="5425" xmlns:xlink="http://www.w3.org/1999/xlink" width="200" height="200"><path d="M565.512258 809.290323h329.992258c10.570323 0 20.645161-3.716129 29.729032-8.91871a62.513548 62.513548 0 0 0 23.783226-20.810323 59.953548 59.953548 0 0 0 8.91871-29.729032c0-10.405161-3.633548-20.645161-8.91871-29.729032l-222.967742-383.504516a54.255484 54.255484 0 0 0-20.810322-20.810323 71.845161 71.845161 0 0 0-32.701936-8.91871c-10.487742 0-20.645161 3.716129-29.729032 8.91871a54.255484 54.255484 0 0 0-20.810323 20.810323l-56.485161 98.105806L452.541935 244.43871c-5.285161-9.083871-11.726452-18.580645-20.810322-23.783226-9.083871-5.202581-19.15871-5.945806-29.729032-5.945807s-20.645161 0.743226-29.729033 5.945807a70.523871 70.523871 0 0 0-23.783225 23.783226L72.010323 720.103226A57.310968 57.310968 0 0 0 66.064516 749.832258c0 10.405161 0.660645 20.645161 5.945807 29.729032a62.513548 62.513548 0 0 0 23.783225 20.810323A60.449032 60.449032 0 0 0 125.522581 809.290323h208.103225c82.498065 0 142.451613-36.996129 184.32-107.024517L619.024516 526.864516l53.512258-92.16 163.509678 279.452903H619.024516zM330.652903 714.157419H184.980645l217.021936-374.585806L512 526.864516l-72.836129 127.009032c-27.829677 45.419355-59.458065 60.283871-108.510968 60.283871z" fill="#00E676" p-id="5426"></path></svg>