<?xml version="1.0" standalone="no"?><!DOCTYPE svg PUBLIC "-//W3C//DTD SVG 1.1//EN" "http://www.w3.org/Graphics/SVG/1.1/DTD/svg11.dtd"><svg t="1711459048131" class="icon" viewBox="0 0 1024 1024" version="1.1" xmlns="http://www.w3.org/2000/svg" p-id="5216" xmlns:xlink="http://www.w3.org/1999/xlink" width="200" height="200"><path d="M576 32A160 160 0 0 1 736 192H896a64 64 0 0 1 64 64v640a64 64 0 0 1-64 64h-234.24v-104.32a87.68 87.68 0 0 0-79.232-87.296L574.08 768a87.68 87.68 0 0 0-87.68 87.68V960H256a64 64 0 0 1-64-64v-160a160 160 0 1 1 0-320V256a64 64 0 0 1 64-64h160A160 160 0 0 1 576 32z m0 74.24c-47.36 0-85.76 38.4-85.76 85.76v74.24h-211.2a12.8 12.8 0 0 0-12.8 12.8v211.2H192a85.76 85.76 0 0 0 0 171.52h74.24v211.2c0 7.04 5.76 12.8 12.8 12.8h133.12v-30.08c0-85.824 66.816-156.096 154.368-161.472l11.072-0.384 11.968 0.64A161.92 161.92 0 0 1 736 855.68v30.08h136.96a12.8 12.8 0 0 0 12.8-12.8V279.04a12.8 12.8 0 0 0-12.8-12.8h-211.2V192c0-47.36-38.4-85.76-85.76-85.76z" fill="#1afa29" p-id="5217"></path></svg>