<?xml version="1.0" standalone="no"?><!DOCTYPE svg PUBLIC "-//W3C//DTD SVG 1.1//EN" "http://www.w3.org/Graphics/SVG/1.1/DTD/svg11.dtd"><svg t="1711553154234" class="icon" viewBox="0 0 1024 1024" version="1.1" xmlns="http://www.w3.org/2000/svg" p-id="4744" xmlns:xlink="http://www.w3.org/1999/xlink" width="200" height="200"><path d="M517.03168 233.216h-0.864c-9.152 0-17.984 1.248-26.4 3.584l0.704-0.16c-11.872 2.848-29.952 14.176-40.672 24.864-17.504 18.048-20.896 25.984-28.256 62.688-3.424 18.048 17.504 61.024 36.128 73.984 19.2 13.536 46.304 21.408 88.096 25.952 60.96 6.816 78.496 27.136 78.496 93.728 0 58.752-16.416 74.528-83.616 81.312-72.832 7.328-110.08 35.584-117.984 90.336-4.512 33.312 17.504 75.104 48 89.216 69.408 32.768 134.4-8.448 147.936-93.696 8.992-54.784 26.528-70.048 85.248-74.528 67.744-5.664 102.784-28.8 115.744-76.256 11.872-43.52-12.96-92.032-55.328-108.96-11.264-4.512-37.248-10.144-57.6-12.416-63.776-6.816-80.16-18.08-86.944-59.296-9.6-57.056-13.536-66.656-33.888-89.184a92.64 92.64 0 0 0-68.8-31.136h-0.032z m-204.16 186.016l-1.856-0.032a92.8 92.8 0 0 0-19.936 2.176l0.608-0.128c-62.688 13.568-92.576 87.52-57.6 140.576 50.272 75.68 168.288 40.672 169.376-50.208 0.512-50.912-41.824-91.424-90.592-92.416zM89.12768 605.44c-6.528 0.16-12.8 0.96-18.848 2.336l0.64-0.128c-92.064 20.32-95.456 154.72-4.512 178.432 22.624 6.176 24.832 6.176 47.392 0.544 50.816-13.568 79.616-62.112 66.08-111.232-11.872-43.52-48.8-71.008-90.752-69.984z m845.824 0.352c-9.952 0.096-20.352 2.464-33.44 6.912-59.296 20.352-79.616 89.248-41.824 142.336 23.776 33.888 83.616 45.152 120.32 22.016 60.416-37.28 58.144-130.432-3.968-159.84-16.224-7.936-28.288-11.552-41.088-11.424z" fill="#CA4245" p-id="4745"></path></svg>