<?xml version="1.0" standalone="no"?><!DOCTYPE svg PUBLIC "-//W3C//DTD SVG 1.1//EN" "http://www.w3.org/Graphics/SVG/1.1/DTD/svg11.dtd"><svg t="1711553102549" class="icon" viewBox="0 0 1024 1024" version="1.1" xmlns="http://www.w3.org/2000/svg" p-id="2875" xmlns:xlink="http://www.w3.org/1999/xlink" width="200" height="200"><path d="M677.461333 673.578667a61.312 61.312 0 0 0-6.570666-122.282667h-2.176a61.098667 61.098667 0 0 0-58.965334 63.317333c1.109333 16.384 7.68 30.592 17.493334 40.405334-37.12 73.130667-93.866667 126.634667-179.072 171.392-57.856 30.549333-117.888 41.472-177.92 33.834666-49.152-6.528-87.338667-28.373333-111.36-64.426666-34.944-53.461333-38.229333-111.36-8.746667-169.173334 20.736-41.514667 53.504-72.106667 74.24-87.338666a588.970667 588.970667 0 0 1-14.208-55.68c-158.293333 114.602667-141.909333 269.653333-93.866667 342.784 36.010667 54.613333 109.184 88.448 189.952 88.448a268.373333 268.373333 0 0 0 65.493334-7.68c139.776-27.306667 245.632-110.250667 305.706666-233.6z" fill="#AB47BC" p-id="2876"></path><path d="M869.589333 538.197333c-82.986667-97.152-205.226667-150.656-344.96-150.656h-17.493333a59.989333 59.989333 0 0 0-53.504-32.768h-2.133333A61.098667 61.098667 0 0 0 392.533333 418.133333a61.312 61.312 0 0 0 61.098667 58.965334h2.218667a61.482667 61.482667 0 0 0 53.461333-37.12h19.626667c83.029333 0 161.621333 24.021333 232.533333 70.954666 54.613333 36.053333 93.909333 82.986667 115.754667 139.776 18.56 45.824 17.493333 90.581333-2.176 128.810667-30.549333 57.856-81.877333 89.514667-149.546667 89.514667a279.210667 279.210667 0 0 1-107.008-22.912c-11.989333 10.88-33.834667 28.373333-49.109333 39.253333 46.933333 21.845333 94.976 33.877333 140.8 33.877333 104.832 0 182.314667-57.856 211.797333-115.712 31.658667-63.317333 29.482667-172.501333-52.394667-265.301333z" fill="#AB47BC" p-id="2877"></path><path d="M315.008 692.138667a61.312 61.312 0 0 0 61.141333 58.965333h2.133334a61.098667 61.098667 0 0 0 59.008-63.36 61.312 61.312 0 0 0-61.141334-58.922667h-2.176c-2.218667 0-5.461333 0-7.68 1.066667-44.757333-74.24-63.317333-155.008-56.746666-242.346667 4.352-65.493333 26.197333-122.282667 64.426666-169.216 31.658667-40.405333 92.757333-60.032 134.272-61.141333 115.712-2.176 164.821333 141.909333 168.106667 199.808 14.208 3.242667 38.229333 10.88 54.613333 16.341333-13.141333-176.853333-122.282667-268.544-227.114666-268.544-98.218667 0-188.842667 70.954667-224.853334 175.786667-50.261333 139.733333-17.493333 274.005333 43.648 379.904a49.066667 49.066667 0 0 0-7.68 31.658667z" fill="#AB47BC" p-id="2878"></path></svg>